{
  "title": "Mission Impossible 5 Rogue Nation HQCAM LAT X264 AC3-MRG",
  "uid": 12179515,
  "size": 747714967,
  "categoryP": "video",
  "categoryS": "movies",
  "magnet": "?xt=urn:btih:147775a42359939e46bb7172e02115459225893e&amp;dn=Mission+Impossible+5+Rogue+Nation+HQCAM+LAT+X264+AC3-MRG&amp;tr=udp%3A%2F%2Ftracker.openbittorrent.com%3A80&amp;tr=udp%3A%2F%2Fopen.demonii.com%3A1337&amp;tr=udp%3A%2F%2Ftracker.coppersurfer.tk%3A6969&amp;tr=udp%3A%2F%2Fexodus.desync.com%3A6969",
  "seeders": 90,
  "leechers": 15,
  "uploader": "makintos13",
  "files": 5,
  "time": 1438401291,
  "description": " &lt;a href=&quot;http://imgmak.com/hu&quot; rel=&quot;nofollow&quot; target=&quot;_NEW&quot;&gt;http://imgmak.com/hu&lt;/a&gt;\n\n\n::::::::\n\nMission Impossible 5 Rogue Nation HQCAM LAT X264 AC3-MRG.mkv\n\nFormat : Matroska\nFormat version : Version 4 / Version 2\nFile size : 713 MiB\nDuration : 1h 59mn\nOverall bit rate : 831 Kbps\nWriting application : Lavf56.25.101\nWriting library : Lavf56.25.101\n\nVideo\nID : 1\nFormat : AVC\nFormat/Info : Advanced Video Codec\nFormat profile : &lt;a class=&quot;__cf_email__&quot; href=&quot;/cdn-cgi/l/email-protection&quot; data-cfemail=&quot;9bd3f2fcf3dbd7a8b5aa&quot;&gt;[email&amp;#160;protected]&lt;/a&gt;&lt;script data-cfhash='f9e31' type=&quot;text/javascript&quot;&gt;\n/* &lt;![CDATA[ */!function(){try{var t=&quot;currentScript&quot;in document?document.currentScript:function(){for(var t=document.getElementsByTagName(&quot;script&quot;),e=t.length;e--;)if(t[e].getAttribute(&quot;data-cfhash&quot;))return t[e]}();if(t&amp;&amp;t.previousSibling){var e,r,n,i,c=t.previousSibling,a=c.getAttribute(&quot;data-cfemail&quot;);if(a){for(e=&quot;&quot;,r=parseInt(a.substr(0,2),16),n=2;a.length-n;n+=2)i=parseInt(a.substr(n,2),16)^r,e+=String.fromCharCode(i);e=document.createTextNode(e),c.parentNode.replaceChild(e,c)}t.parentNode.removeChild(t);}}catch(u){}}()/* ]]&gt; */&lt;/script&gt;\nFormat settings, CABAC : Yes\nFormat settings, ReFrames : 4 frames\nCodec ID : V_MPEG4/ISO/AVC\nDuration : 1h 59mn\nBit rate : 700 Kbps\nWidth : 720 pixels\nHeight : 400 pixels\nDisplay aspect ratio : 16:9\nFrame rate mode : Constant\nFrame rate : 60.000 fps\nColor space : YUV\nChroma subsampling : 4:2:0\nBit depth : 8 bits\nScan type : Progressive\nBits/(Pixel*Frame) : 0.041\nStream size : 589 MiB (83%)\nWriting library : x264 core\n\nAudio\nID : 2\nFormat : AC-3\nFormat/Info : Audio Coding 3\nMode extension : CM (complete main)\nFormat settings, Endianness : Big\nCodec ID : A_AC3\nDuration : 1h 59mn\nBit rate mode : Constant\nBit rate : 128 Kbps\nChannel(s) : 2 channels\nChannel positions : Front: L R\nSampling rate : 48.0 KHz\nCompression mode : Lossy\nDelay relative to video : 31ms\nStream size : 110 MiB (15%)\nLanguage : unknown\nDefault : Yes\nForced : No",
  "parsed": {
    "xt": "urn:btih:147775a42359939e46bb7172e02115459225893e",
    "dn": "Mission Impossible 5 Rogue Nation HQCAM LAT X264 AC3-MRG",
    "tr": [
      "udp://exodus.desync.com:6969",
      "udp://open.demonii.com:1337",
      "udp://tracker.coppersurfer.tk:6969",
      "udp://tracker.openbittorrent.com:80"
    ],
    "infoHash": "147775a42359939e46bb7172e02115459225893e",
    "infoHashBuffer": {
      "type": "Buffer",
      "data": [
        20,
        119,
        117,
        164,
        35,
        89,
        147,
        158,
        70,
        187,
        113,
        114,
        224,
        33,
        21,
        69,
        146,
        37,
        137,
        62
      ]
    },
    "name": "Mission Impossible 5 Rogue Nation HQCAM LAT X264 AC3-MRG",
    "announce": [
      "udp://exodus.desync.com:6969",
      "udp://open.demonii.com:1337",
      "udp://tracker.coppersurfer.tk:6969",
      "udp://tracker.openbittorrent.com:80"
    ],
    "urlList": []
  },
  "previous": 105,
  "peers": 2,
  "last_updated": "2016-12-24T17:53:11.945Z"
}